<?xml version="1.0" encoding="UTF-8" standalone="no"?>
<svg width="64px" height="64px" viewBox="0 0 64 64" version="1.1" xmlns="http://www.w3.org/2000/svg" xmlns:xlink="http://www.w3.org/1999/xlink" xmlns:sketch="http://www.bohemiancoding.com/sketch/ns">
    <!-- Generator: Sketch 3.5.1 (25234) - http://www.bohemiancoding.com/sketch -->
    <title>Slice 2</title>
    <desc>Created with Sketch.</desc>
    <defs></defs>
    <g id="Page-1" stroke="none" stroke-width="1" fill="none" fill-rule="evenodd" sketch:type="MSPage">
        <g id="alarm" sketch:type="MSLayerGroup" transform="translate(9.000000, 9.000000)" fill="#FFFFFF">
            <g id="Group" sketch:type="MSShapeGroup">
                <g id="Shape">
                    <path d="M44.3,23 C44.3,20.8 44,18.8 43.4,16.8 C45,15 45.8,12.7 45.8,10.2 C45.8,7.5 44.7,5.1 42.9,3.2 C41,1.3 38.5,0.3 35.9,0.3 C33.5,0.3 31.2,1.1 29.3,2.7 C27.3,2.1 25.2,1.8 23.1,1.8 C20.9,1.8 18.9,2.1 16.9,2.7 C15.1,1.1 12.8,0.3 10.3,0.3 C7.6,0.3 5.2,1.4 3.3,3.2 C1.4,5.1 0.4,7.6 0.4,10.2 C0.4,12.6 1.2,14.9 2.8,16.8 C2.2,18.8 1.9,20.9 1.9,23 C1.9,29.4 4.7,35.1 9.2,39 L6.3,43.7 C6.1,44 6.1,44.3 6.3,44.6 C6.4,44.9 6.7,45 7,45 L11.7,45 C12.2,45 12.5,44.6 12.5,44.2 C12.5,43.7 12.1,43.4 11.7,43.4 L8.5,43.4 L10.5,40.2 C14,42.8 18.4,44.4 23.1,44.4 C27.8,44.4 32.2,42.8 35.7,40.2 L37.7,43.4 L34.5,43.4 C34,43.4 33.7,43.8 33.7,44.2 C33.7,44.7 34.1,45 34.5,45 L39.2,45 C39.5,45 39.8,44.8 39.9,44.6 C40,44.3 40,44 39.9,43.7 L36.9,39 C41.4,35.1 44.3,29.3 44.3,23 L44.3,23 Z M42,4 C45.1,7.1 45.4,12 42.9,15.4 C40.7,9.7 36.2,5.2 30.6,3.1 C34,0.6 38.9,0.9 42,4 L42,4 Z M4,4 C7.1,0.9 12,0.6 15.4,3.1 C9.7,5.3 5.2,9.8 3.1,15.4 C0.6,12 0.9,7.1 4,4 L4,4 Z M3.4,23 C3.4,12.2 12.2,3.4 23,3.4 C33.8,3.4 42.6,12.2 42.6,23 C42.6,33.8 33.8,42.5 23,42.5 C12.2,42.5 3.4,33.8 3.4,23 L3.4,23 Z"></path>
                    <path d="M23,9 C23.5,9 23.8,8.6 23.8,8.2 L23.8,5.4 C23.8,4.9 23.4,4.6 23,4.6 C22.5,4.6 22.2,5 22.2,5.4 L22.2,8.2 C22.2,8.6 22.5,9 23,9 L23,9 Z"></path>
                    <path d="M37.8,23.8 L40.6,23.8 C41.1,23.8 41.4,23.4 41.4,23 C41.4,22.6 41,22.2 40.6,22.2 L37.8,22.2 C37.3,22.2 37,22.6 37,23 C37,23.4 37.3,23.8 37.8,23.8 L37.8,23.8 Z"></path>
                    <path d="M23,36.9 C22.5,36.9 22.2,37.3 22.2,37.7 L22.2,40.5 C22.2,41 22.6,41.3 23,41.3 C23.5,41.3 23.8,40.9 23.8,40.5 L23.8,37.7 C23.8,37.3 23.5,36.9 23,36.9 L23,36.9 Z"></path>
                    <path d="M8.2,22.1 L5.4,22.1 C4.9,22.1 4.6,22.5 4.6,22.9 C4.6,23.3 5,23.7 5.4,23.7 L8.2,23.7 C8.7,23.7 9,23.3 9,22.9 C9,22.5 8.7,22.1 8.2,22.1 L8.2,22.1 Z"></path>
                    <path d="M34.9,22.5 L24.8,22.5 C24.7,21.9 24.2,21.4 23.6,21.2 L23.6,21.2 L23.6,14.9 C23.6,14.6 23.3,14.3 23,14.3 C22.7,14.3 22.4,14.6 22.4,14.9 L22.4,21.2 L22.4,21.2 C21.7,21.4 21.1,22.1 21.1,22.9 C21.1,23.9 21.9,24.7 22.9,24.7 C23.8,24.7 24.5,24.1 24.7,23.3 L34.8,23.3 C35,23.3 35.2,23.1 35.2,22.9 C35.2,22.7 35.2,22.5 34.9,22.5 L34.9,22.5 Z M23,24 C22.4,24 22,23.5 22,23 C22,22.4 22.5,22 23,22 C23.6,22 24,22.5 24,23 C24,23.5 23.6,24 23,24 L23,24 Z"></path>
                </g>
            </g>
        </g>
    </g>
</svg>