<?xml version="1.0" encoding="UTF-8" standalone="no"?>
<svg width="108px" height="105px" viewBox="0 0 108 105" version="1.1" xmlns="http://www.w3.org/2000/svg" xmlns:xlink="http://www.w3.org/1999/xlink" xmlns:sketch="http://www.bohemiancoding.com/sketch/ns">
    <!-- Generator: Sketch 3.5.1 (25234) - http://www.bohemiancoding.com/sketch -->
    <title>Slice 1</title>
    <desc>Created with Sketch.</desc>
    <defs></defs>
    <g id="Page-1" stroke="none" stroke-width="1" fill="none" fill-rule="evenodd" sketch:type="MSPage">
        <g id="calendar" sketch:type="MSLayerGroup" transform="translate(12.000000, 12.000000)" fill="#FFFFFF">
            <g id="Group" sketch:type="MSShapeGroup">
                <path d="M53.6,8 L30.9,8 L30.9,11 L53.6,11 L53.6,8 L53.6,8 Z M75.5,8 L62.5,8 L62.5,11 L75.5,11 C78.5,11 81,13.5 81,16.5 L81,64 L74.4,64 C69.7,64 65.9,67.8 65.9,72.5 L65.9,79 L8.5,79 C5.5,79 3,76.5 3,73.5 L3,16.5 C3,13.5 5.5,11 8.5,11 L22,11 L22,8 L8.5,8 C3.8,8 0,11.8 0,16.5 L0,73.5 C0,78.2 3.8,82 8.5,82 L68.9,82 L69,81.9 L83.6,67.5 L84,67.1 L84,16.5 C84,11.8 80.2,8 75.5,8 L75.5,8 Z M68.9,77.7 L68.9,72.5 C68.9,69.5 71.4,67 74.4,67 L79.8,67 L68.9,77.7 L68.9,77.7 Z M26.4,19.2 C27.2,19.2 27.9,18.5 27.9,17.7 L27.9,1.5 C27.9,0.7 27.2,0 26.4,0 C25.6,0 24.9,0.7 24.9,1.5 L24.9,17.7 C24.9,18.6 25.6,19.2 26.4,19.2 L26.4,19.2 Z M58.1,19.2 C58.9,19.2 59.6,18.5 59.6,17.7 L59.6,1.5 C59.6,0.7 58.9,0 58.1,0 C57.3,0 56.6,0.7 56.6,1.5 L56.6,17.7 C56.6,18.6 57.2,19.2 58.1,19.2 L58.1,19.2 Z M37.6,63.8 C37.9,64.1 38.3,64.3 38.7,64.3 L38.7,64.3 C39.2,64.3 39.6,64.1 39.9,63.7 L64.2,32.8 C64.7,32.1 64.6,31.2 63.9,30.7 C63.3,30.2 62.3,30.3 61.8,31 L38.7,60.5 L25.1,44 C24.6,43.4 23.6,43.3 23,43.8 C22.4,44.3 22.3,45.3 22.8,45.9 L37.6,63.8 L37.6,63.8 Z" id="Shape"></path>
            </g>
        </g>
    </g>
</svg>