<?xml version="1.0" encoding="UTF-8" standalone="no"?>
<svg width="88px" height="70px" viewBox="0 0 88 70" version="1.1" xmlns="http://www.w3.org/2000/svg" xmlns:xlink="http://www.w3.org/1999/xlink" xmlns:sketch="http://www.bohemiancoding.com/sketch/ns">
    <!-- Generator: Sketch 3.5.1 (25234) - http://www.bohemiancoding.com/sketch -->
    <title>megaphone</title>
    <desc>Created with Sketch.</desc>
    <defs></defs>
    <g id="Page-1" stroke="none" stroke-width="1" fill="none" fill-rule="evenodd" sketch:type="MSPage">
        <g id="megaphone" sketch:type="MSLayerGroup" fill="#FFFFFF">
            <g id="Group" sketch:type="MSShapeGroup">
                <g id="Shape">
                    <path d="M64.697,25.701 C61.79,13.673 56.101,0.727 50.481,0.727 C50.203,0.727 49.925,0.76 49.658,0.824 C48.433,1.12 47.458,2.053 46.742,3.568 C46.666,3.628 46.583,3.674 46.52,3.754 C43.374,7.776 32.108,21.06 19.255,24.166 L9.435,26.7 C9.396,26.709 9.358,26.721 9.32,26.733 C6.311,27.56 3.771,29.453 2.136,32.095 C0.426,34.861 -0.094,38.129 0.673,41.3 C1.44,44.47 3.395,47.141 6.179,48.82 C8.95,50.492 12.227,50.989 15.404,50.222 L17.44,49.73 L17.442,49.73 L17.443,49.73 L19.892,49.138 L28.018,65.835 C29.076,68.007 31.258,69.273 33.527,69.273 C34.424,69.273 35.335,69.076 36.194,68.658 C39.225,67.181 40.491,63.514 39.015,60.482 L32.445,46.982 C44.176,46.883 56.156,52.335 58.894,53.663 C59.874,54.393 60.867,54.798 61.858,54.798 C62.136,54.798 62.414,54.765 62.681,54.7 C65.275,54.073 66.766,50.624 66.993,44.725 C67.197,39.428 66.382,32.672 64.697,25.701 L64.697,25.701 Z M14.792,47.695 C12.287,48.302 9.704,47.91 7.521,46.593 C5.337,45.276 3.801,43.178 3.2,40.688 C2.598,38.198 3.005,35.63 4.348,33.46 C5.671,31.319 7.754,29.8 10.22,29.179 L11.086,28.969 L15.567,47.507 L14.792,47.695 L14.792,47.695 Z M35.056,66.32 C33.314,67.168 31.203,66.44 30.356,64.697 L27.407,58.638 L33.816,55.743 L36.677,61.621 C37.526,63.363 36.798,65.471 35.056,66.32 L35.056,66.32 Z M32.678,53.404 L26.269,56.299 L22.48,48.513 L25.49,47.785 C26.841,47.459 28.223,47.244 29.619,47.118 L32.678,53.404 L32.678,53.404 Z M24.878,45.258 L18.094,46.897 L13.613,28.358 L19.868,26.843 C30.676,24.231 40.285,14.974 45.454,9.142 C45.408,9.673 45.37,10.221 45.347,10.799 C45.24,13.557 45.416,16.716 45.842,20.09 C45.848,20.138 45.836,20.184 45.847,20.233 C45.851,20.249 45.863,20.26 45.867,20.276 C46.259,23.327 46.851,26.549 47.643,29.824 C48.419,33.035 49.395,36.31 50.513,39.388 C50.519,39.449 50.505,39.507 50.52,39.568 C50.563,39.745 50.647,39.896 50.75,40.033 C52.033,43.471 53.496,46.625 55.058,49.133 C48.066,46.36 35.753,42.628 24.878,45.258 L24.878,45.258 Z M48.622,21.237 C50.581,21.776 52.906,24.45 53.891,28.521 C54.868,32.567 54.04,35.986 52.558,37.38 C51.708,34.934 50.896,32.217 50.17,29.212 C49.511,26.486 48.997,23.805 48.622,21.237 L48.622,21.237 Z M64.396,44.625 C64.207,49.496 63.092,51.926 62.07,52.173 C62.002,52.19 61.932,52.197 61.858,52.197 C61.628,52.197 61.372,52.126 61.094,51.989 C60.985,51.852 60.849,51.734 60.684,51.648 C60.63,51.62 60.49,51.547 60.28,51.443 C58.399,49.892 55.86,45.967 53.501,39.933 C56.431,38.133 57.708,33.245 56.418,27.909 C55.121,22.545 51.735,18.762 48.279,18.537 C47.979,15.774 47.856,13.185 47.944,10.898 C48.132,6.027 49.247,3.598 50.269,3.351 C50.337,3.334 50.407,3.327 50.481,3.327 C52.988,3.327 58.593,11.512 62.17,26.312 C63.801,33.057 64.591,39.56 64.396,44.625 L64.396,44.625 Z"></path>
                    <path d="M74.626,24.899 C74.052,24.887 73.535,24.492 73.392,23.908 C73.221,23.211 73.648,22.507 74.345,22.336 L82.839,20.252 C83.535,20.08 84.24,20.508 84.411,21.205 C84.582,21.902 84.155,22.606 83.458,22.777 L74.964,24.861 C74.851,24.889 74.737,24.902 74.626,24.899 L74.626,24.899 Z"></path>
                    <path d="M68.191,10.693 C67.843,10.678 67.502,10.523 67.258,10.237 C66.792,9.69 66.859,8.869 67.406,8.404 L75.065,1.89 C75.611,1.426 76.433,1.491 76.897,2.038 C77.363,2.585 77.296,3.406 76.749,3.871 L69.09,10.385 C68.83,10.607 68.508,10.707 68.191,10.693 L68.191,10.693 Z"></path>
                    <path d="M86.061,42.782 C85.89,42.811 85.71,42.807 85.529,42.762 L76.113,40.436 C75.415,40.264 74.991,39.559 75.163,38.863 C75.333,38.166 76.036,37.737 76.736,37.913 L86.152,40.239 C86.85,40.411 87.274,41.116 87.102,41.812 C86.976,42.329 86.555,42.697 86.061,42.782 L86.061,42.782 Z"></path>
                </g>
            </g>
        </g>
    </g>
</svg>