<?xml version="1.0" encoding="UTF-8" standalone="no"?>
<svg width="54px" height="48px" viewBox="0 0 54 48" version="1.1" xmlns="http://www.w3.org/2000/svg" xmlns:xlink="http://www.w3.org/1999/xlink" xmlns:sketch="http://www.bohemiancoding.com/sketch/ns">
    <!-- Generator: Sketch 3.5.1 (25234) - http://www.bohemiancoding.com/sketch -->
    <title>moon</title>
    <desc>Created with Sketch.</desc>
    <defs></defs>
    <g id="Page-1" stroke="none" stroke-width="1" fill="none" fill-rule="evenodd" sketch:type="MSPage">
        <g id="moon" sketch:type="MSLayerGroup" fill="#FFFFFF">
            <g id="Group" sketch:type="MSShapeGroup">
                <g id="Shape">
                    <path d="M21.81,4.96 C21.81,5.68 21.23,6.26 20.51,6.26 L17.59,6.26 L17.59,9.08 C17.59,9.8 17.01,10.38 16.29,10.38 C15.57,10.38 14.99,9.8 14.99,9.08 L14.99,6.26 L11.74,6.26 C11.02,6.26 10.44,5.68 10.44,4.96 C10.44,4.25 11.02,3.66 11.74,3.66 L14.99,3.66 L14.99,1.6 C14.99,0.89 15.57,0.31 16.29,0.31 C17.01,0.31 17.59,0.89 17.59,1.6 L17.59,3.66 L20.51,3.66 C21.23,3.66 21.81,4.25 21.81,4.96 L21.81,4.96 Z"></path>
                    <path d="M9.14,20.46 C9.14,21.17 8.56,21.75 7.84,21.75 L6.21,21.75 L6.21,23.38 C6.21,24.1 5.63,24.68 4.91,24.68 C4.2,24.68 3.61,24.1 3.61,23.38 L3.61,21.75 L1.56,21.75 C0.84,21.75 0.26,21.17 0.26,20.46 C0.26,19.74 0.84,19.15 1.56,19.15 L3.61,19.15 L3.61,17.42 C3.61,16.7 4.2,16.12 4.91,16.12 C5.63,16.12 6.21,16.7 6.21,17.42 L6.21,19.15 L7.84,19.15 C8.56,19.15 9.14,19.74 9.14,20.46 L9.14,20.46 Z"></path>
                    <path d="M52.59,30.97 C52.481,30.95 52.37,30.941 52.26,30.96 C52.24,30.95 52.21,30.95 52.191,30.95 C45.43,30.95 40.39,30.66 37.1,26.86 C34.77,24.19 34.93,20.15 35.1,15.87 C35.151,14.73 35.191,13.58 35.191,12.44 C35.191,12.22 35.13,12 35.031,11.82 C34.871,11.21 34.291,10.8 33.64,10.86 C24.27,11.84 17.21,19.69 17.21,29.12 C17.21,39.25 25.45,47.48 35.57,47.48 C44.42,47.48 52.019,41.179 53.63,32.48 C53.76,31.78 53.29,31.1 52.59,30.97 L52.59,30.97 Z M35.57,44.88 C26.88,44.88 19.81,37.81 19.81,29.12 C19.81,21.48 25.2,15.05 32.57,13.66 C32.559,14.36 32.53,15.07 32.5,15.77 C32.32,20.36 32.13,25.12 35.13,28.57 C39.11,33.139 45.13,33.519 50.7,33.54 C48.77,40.2 42.64,44.88 35.57,44.88 L35.57,44.88 Z"></path>
                </g>
            </g>
        </g>
    </g>
</svg>