<?xml version="1.0" encoding="UTF-8" standalone="no"?>
<svg width="76px" height="84px" viewBox="0 0 76 84" version="1.1" xmlns="http://www.w3.org/2000/svg" xmlns:xlink="http://www.w3.org/1999/xlink" xmlns:sketch="http://www.bohemiancoding.com/sketch/ns">
    <!-- Generator: Sketch 3.5.1 (25234) - http://www.bohemiancoding.com/sketch -->
    <title>Slice 4</title>
    <desc>Created with Sketch.</desc>
    <defs></defs>
    <g id="Page-1" stroke="none" stroke-width="1" fill="none" fill-rule="evenodd" sketch:type="MSPage">
        <g id="mute" sketch:type="MSLayerGroup" transform="translate(7.000000, 14.000000)" fill="#FFFFFF">
            <g id="Group" sketch:type="MSShapeGroup">
                <path d="M33.2863436,55.1699779 L11.6005352,38.8697572 L0.757709251,38.8697572 L0.757709251,16.3002208 L11.6005352,16.3002208 L33.2863436,0 L33.2863436,55.1699779 L33.2863436,55.1699779 Z M3.25991189,36.3620309 L12.434707,36.3620309 L30.784141,50.1545254 L30.784141,5.01545254 L12.434707,18.807947 L3.25991189,18.807947 L3.25991189,36.3620309 L3.25991189,36.3620309 Z" id="Shape"></path>
                <path d="M42.9286408,16.6668627 L62.9460328,36.7284432 L61.1767253,38.5016565 L41.1593333,18.440076 L42.9286408,16.6668627 L42.9286408,16.6668627 Z" id="Rectangle-path"></path>
                <path d="M61.1737707,16.667474 L62.9430782,18.4406872 L42.9256862,38.5022677 L41.1563787,36.7290545 L61.1737707,16.667474 L61.1737707,16.667474 Z" id="Rectangle-path"></path>
            </g>
        </g>
    </g>
</svg>