<?xml version="1.0" encoding="UTF-8" standalone="no"?>
<svg width="60px" height="48px" viewBox="0 0 60 48" version="1.1" xmlns="http://www.w3.org/2000/svg" xmlns:xlink="http://www.w3.org/1999/xlink" xmlns:sketch="http://www.bohemiancoding.com/sketch/ns">
    <!-- Generator: Sketch 3.5.1 (25234) - http://www.bohemiancoding.com/sketch -->
    <title>nice</title>
    <desc>Created with Sketch.</desc>
    <defs></defs>
    <g id="Page-1" stroke="none" stroke-width="1" fill="none" fill-rule="evenodd" sketch:type="MSPage">
        <g id="nice" sketch:type="MSLayerGroup" fill="#FFFFFF">
            <path d="M47.1,48 L17.5,48 C8.1,48 0.5,40.4 0.5,31 C0.5,29.4 1.8,28.2 3.3,28.2 C4.8,28.2 6.1,29.5 6.1,31 C6.1,37.3 11.2,42.4 17.5,42.4 L47.1,42.4 C50.8,42.4 53.8,39.4 53.8,35.7 C53.8,33.1 52.3,30.7 49.9,29.6 C48.7,29.1 48.1,27.8 48.3,26.6 C48.4,25.8 48.5,25.1 48.5,24.4 C48.5,17.3 42.7,11.5 35.6,11.5 C31.5,11.5 27.7,13.4 25.2,16.7 C24.3,17.9 22.5,18.2 21.3,17.3 C20.1,16.4 19.8,14.6 20.7,13.4 C24.2,8.7 29.7,5.9 35.6,5.9 C45.8,5.9 54.2,14.2 54.2,24.5 L54.2,25.6 C57.5,27.9 59.6,31.7 59.6,35.8 C59.4,42.5 53.9,48 47.1,48 L47.1,48 Z" id="Shape" sketch:type="MSShapeGroup"></path>
            <path d="M3.3,33.7 C1.7,33.7 0.5,32.4 0.5,30.9 C0.5,26.8 2,22.8 4.7,19.7 C5.7,18.5 7.5,18.4 8.7,19.4 C9.9,20.4 10,22.2 9,23.4 C7.2,25.5 6.2,28.1 6.2,30.9 C6.1,32.4 4.9,33.7 3.3,33.7 L3.3,33.7 Z" id="Shape" sketch:type="MSShapeGroup"></path>
            <path d="M20.5,33.5 C11.1,33.5 3.5,25.9 3.5,16.5 C3.5,8.9 8.6,2.1 16,0.1 C16.9,-0.1 17.8,0.1 18.5,0.6 C19.2,1.1 19.6,2.1 19.5,3 C19.5,3.3 19.4,3.6 19.4,4 C19.4,10.3 24.5,15.4 30.8,15.4 C31.8,15.4 32.8,15.3 33.9,15 C34.8,14.8 35.7,15 36.4,15.5 C37.1,16.1 37.5,17 37.4,17.9 C36.8,26.6 29.3,33.5 20.5,33.5 L20.5,33.5 Z M14.1,7 C11,9.1 9.1,12.6 9.1,16.4 C9.1,22.7 14.2,27.8 20.5,27.8 C25.1,27.8 29.2,25 31,20.9 C22.6,21 15.6,15 14.1,7 L14.1,7 Z" id="Shape" sketch:type="MSShapeGroup"></path>
        </g>
    </g>
</svg>