<?xml version="1.0" encoding="UTF-8" standalone="no"?>
<svg width="71px" height="71px" viewBox="0 0 71 71" version="1.1" xmlns="http://www.w3.org/2000/svg" xmlns:xlink="http://www.w3.org/1999/xlink" xmlns:sketch="http://www.bohemiancoding.com/sketch/ns">
    <!-- Generator: Sketch 3.5.1 (25234) - http://www.bohemiancoding.com/sketch -->
    <title>Slice 3</title>
    <desc>Created with Sketch.</desc>
    <defs></defs>
    <g id="Page-1" stroke="none" stroke-width="1" fill="none" fill-rule="evenodd" sketch:type="MSPage">
        <g id="mute" sketch:type="MSLayerGroup" transform="translate(61.000000, -45.000000)" fill="#FFFFFF">
            <g id="Group" sketch:type="MSShapeGroup">
                <path d="M33.2863436,55.1699779 L11.6005352,38.8697572 L0.757709251,38.8697572 L0.757709251,16.3002208 L11.6005352,16.3002208 L33.2863436,0 L33.2863436,55.1699779 L33.2863436,55.1699779 Z M3.25991189,36.3620309 L12.434707,36.3620309 L30.784141,50.1545254 L30.784141,5.01545254 L12.434707,18.807947 L3.25991189,18.807947 L3.25991189,36.3620309 L3.25991189,36.3620309 Z" id="Shape"></path>
            </g>
        </g>
        <g id="pillow" sketch:type="MSLayerGroup" transform="translate(5.000000, 10.000000)" fill="#FFFFFF">
            <g id="Group" sketch:type="MSShapeGroup">
                <g id="Shape">
                    <path d="M11.1,51.9 C10.1,51.9 9.2,51.6 8.5,50.9 C6.9,49.3 7.3,46.3 9.4,43.8 C3.3,35.6 1.7,26.4 4.6,16.6 C1.8,15.1 0.3,12.4 1.3,10.3 C1.9,9 3.4,8.2 5.3,8.2 C6.4,8.2 7.6,8.5 8.8,9 C9.4,9.3 9.9,9.6 10.4,10 C21.1,4.4 32.6,2.4 44.6,4 C44.9,3.5 45.3,3 45.8,2.5 C47.3,1 49.1,0.2 50.7,0.2 C51.7,0.2 52.6,0.5 53.3,1.2 C54.9,2.8 54.5,5.9 52.3,8.3 C58.4,16.5 60,25.6 57.1,35.4 C60,36.9 61.5,39.6 60.5,41.8 C59.9,43.1 58.4,43.9 56.5,43.9 C55.4,43.9 54.2,43.6 53,43.1 C52.4,42.8 51.8,42.5 51.4,42.1 C40.7,47.7 29.2,49.7 17.2,48.1 C16.9,48.6 16.5,49.1 16,49.6 C14.6,51 12.8,51.9 11.1,51.9 L11.1,51.9 Z M5.4,10.2 C4.3,10.2 3.5,10.6 3.2,11.2 C2.7,12.2 3.8,14.1 6.1,15.1 C6.2,15.1 6.2,15.2 6.3,15.2 C6.8,15.4 7.1,15.9 6.9,16.5 C3.7,26.3 5.3,35.3 11.6,43.4 C11.9,43.8 11.9,44.4 11.4,44.8 L11.3,44.9 C9.5,46.7 9.1,48.8 9.9,49.6 C10.2,49.9 10.6,50 11.1,50 C12.2,50 13.5,49.3 14.6,48.3 C15.1,47.8 15.5,47.2 15.8,46.7 C16,46.3 16.4,46.1 16.8,46.2 C28.8,47.9 40.3,45.9 51,40.2 C51.4,40 51.8,40.1 52.1,40.3 C52.6,40.7 53.2,41.1 53.8,41.4 C55.8,42.3 58.1,42.1 58.6,41.1 C59.1,40.1 58,38.2 55.7,37.2 C55.6,37.2 55.5,37.1 55.5,37.1 C55,36.9 54.7,36.4 54.9,35.8 C58,26.1 56.5,17 50.2,9 C49.9,8.6 49.9,7.9 50.4,7.6 C50.5,7.6 50.5,7.5 50.6,7.4 C52.4,5.6 52.7,3.5 52,2.7 C51.7,2.4 51.3,2.3 50.8,2.3 C49.7,2.3 48.4,3 47.3,4 C46.8,4.5 46.4,5.1 46.1,5.6 C45.9,6 45.5,6.2 45.1,6.1 C33.1,4.4 21.6,6.4 10.9,12.1 C10.5,12.3 10.1,12.2 9.8,12 C9.3,11.6 8.7,11.2 8.1,10.9 C7.2,10.4 6.3,10.2 5.4,10.2 L5.4,10.2 Z"></path>
                    <path d="M26.1,43.1 C23.8,43.1 21.4,42.9 19,42.6 C18.5,42.5 18.1,42 18.2,41.5 C18.3,41 18.8,40.6 19.3,40.7 C29.3,42.1 38.8,40.4 47.6,35.7 C48.1,35.4 48.7,35.6 49,36.1 C49.3,36.6 49.1,37.2 48.6,37.5 C41.4,41.2 33.9,43.1 26.1,43.1 L26.1,43.1 Z"></path>
                </g>
            </g>
        </g>
    </g>
</svg>