<?xml version="1.0" encoding="UTF-8" standalone="no"?>
<svg width="85px" height="52px" viewBox="0 0 85 52" version="1.1" xmlns="http://www.w3.org/2000/svg" xmlns:xlink="http://www.w3.org/1999/xlink" xmlns:sketch="http://www.bohemiancoding.com/sketch/ns">
    <!-- Generator: Sketch 3.5.1 (25234) - http://www.bohemiancoding.com/sketch -->
    <title>ringing</title>
    <desc>Created with Sketch.</desc>
    <defs></defs>
    <g id="Page-1" stroke="none" stroke-width="1" fill="none" fill-rule="evenodd" sketch:type="MSPage">
        <g id="ringing" sketch:type="MSLayerGroup" fill="#FFFFFF">
            <g id="Group" sketch:type="MSShapeGroup">
                <g id="Shape">
                    <path d="M52.288,7.806 C52.615,7.382 52.859,6.9 53.01,6.379 C53.671,4.083 52.341,1.677 50.045,1.016 C47.748,0.354 45.343,1.684 44.682,3.981 C44.532,4.502 44.483,5.04 44.534,5.573 C36.767,5.248 29.717,10.275 27.54,17.834 L25.083,26.366 C20.601,29.302 17.323,33.739 15.839,38.89 L15.639,39.583 L31.295,44.092 C30.796,47.119 32.636,50.115 35.654,50.985 C38.672,51.855 41.824,50.296 43.012,47.467 L58.668,51.975 L58.867,51.282 C60.351,46.131 59.935,40.631 57.701,35.76 L60.158,27.228 C62.335,19.668 59.038,11.661 52.288,7.806 L52.288,7.806 Z M58.77,26.827 L56.163,35.881 L56.28,36.128 C58.362,40.524 58.848,45.487 57.668,50.184 L42.064,45.69 L41.864,46.384 C41.148,48.871 38.541,50.312 36.054,49.596 C33.567,48.88 32.125,46.273 32.842,43.785 L33.042,43.091 L17.439,38.598 C18.939,33.994 21.99,30.047 26.09,27.433 L26.32,27.286 L28.927,18.232 C31.002,11.028 37.916,6.337 45.367,7.078 L46.492,7.19 L46.12,6.122 C45.922,5.552 45.904,4.949 46.068,4.379 C46.508,2.848 48.113,1.961 49.644,2.402 C51.174,2.843 52.061,4.447 51.62,5.978 C51.456,6.548 51.121,7.049 50.65,7.427 L49.767,8.133 L50.779,8.636 C57.484,11.973 60.845,19.623 58.77,26.827 L58.77,26.827 Z"></path>
                    <path d="M19.377,26.534 C15.434,22.592 15.434,16.178 19.377,12.235 L18.356,11.214 C13.851,15.719 13.851,23.05 18.356,27.556 L19.377,26.534 L19.377,26.534 Z"></path>
                    <path d="M13.249,6.107 C5.927,13.429 5.927,25.341 13.249,32.663 L14.27,31.642 C7.512,24.883 7.512,13.887 14.27,7.128 L13.249,6.107 L13.249,6.107 Z"></path>
                    <path d="M9.163,2.021 L8.142,1 C-1.996,11.138 -1.996,27.632 8.142,37.77 L9.163,36.749 C-0.411,27.174 -0.411,11.596 9.163,2.021 L9.163,2.021 Z"></path>
                    <path d="M65.539,12.235 C69.481,16.177 69.481,22.591 65.539,26.534 L66.56,27.555 C71.065,23.049 71.065,15.719 66.56,11.213 L65.539,12.235 L65.539,12.235 Z"></path>
                    <path d="M71.667,6.107 L70.646,7.128 C77.405,13.886 77.405,24.883 70.646,31.642 L71.667,32.663 C78.989,25.341 78.988,13.429 71.667,6.107 L71.667,6.107 Z"></path>
                    <path d="M76.774,1 L75.753,2.021 C85.326,11.596 85.327,27.174 75.753,36.748 L76.774,37.769 C86.911,27.632 86.911,11.138 76.774,1 L76.774,1 Z"></path>
                </g>
            </g>
        </g>
    </g>
</svg>