<?xml version="1.0" encoding="UTF-8" standalone="no"?>
<svg width="60px" height="66px" viewBox="0 0 60 66" version="1.1" xmlns="http://www.w3.org/2000/svg" xmlns:xlink="http://www.w3.org/1999/xlink" xmlns:sketch="http://www.bohemiancoding.com/sketch/ns">
    <!-- Generator: Sketch 3.5.1 (25234) - http://www.bohemiancoding.com/sketch -->
    <title>snooze</title>
    <desc>Created with Sketch.</desc>
    <defs></defs>
    <g id="Page-1" stroke="none" stroke-width="1" fill="none" fill-rule="evenodd" sketch:type="MSPage">
        <g id="snooze" sketch:type="MSLayerGroup" fill="#FFFFFF">
            <g id="Group" sketch:type="MSShapeGroup">
                <path d="M56,58 L45.7,58 C45.4,57.7 45,57.6 44.5,57.6 C44,57.6 43.6,57.8 43.3,58 L43.2,58 C42.9,57.8 42.6,57.6 42.3,57.6 C48.2,53.5 52.2,46.7 52.2,39 C52.2,37.6 52.1,36.2 51.8,34.8 C52.2,33.6 52.4,32.3 52.4,30.9 C52.4,30.5 52.4,30 52.3,29.6 L52.3,17.7 L39.1,17.7 L38.9,17.7 C38.9,17.7 38.4,17.8 37.7,18 C32.4,15.9 26.4,15.9 21.1,18 C20.4,17.8 20,17.7 20,17.7 L6.7,17.7 L6.7,29.6 C6.7,30 6.6,30.5 6.6,30.9 C6.6,32.2 6.8,33.4 7.2,34.6 C7,36 6.8,37.5 6.8,39 C6.8,46.7 10.7,53.5 16.7,57.6 C16.3,57.7 16,57.8 15.7,58 L15.6,58 C15.3,57.7 14.9,57.6 14.4,57.6 C13.9,57.6 13.5,57.8 13.2,58 L4,58 C2.2,58 0.7,59.5 0.7,61.3 C0.7,63.1 2.2,64.6 4,64.6 L12.9,64.6 C13.2,65.1 13.8,65.4 14.5,65.4 C15,65.4 15.4,65.2 15.8,64.9 C16.1,65.2 16.6,65.4 17.1,65.4 C17.6,65.4 18,65.2 18.4,64.9 C18.7,65.2 19.2,65.4 19.7,65.4 C20.4,65.4 20.9,65.1 21.3,64.6 L38.1,64.6 C38.4,65.1 39,65.4 39.7,65.4 C40.2,65.4 40.6,65.2 41,64.9 C41.3,65.2 41.8,65.4 42.3,65.4 C42.8,65.4 43.2,65.2 43.6,64.9 C43.9,65.2 44.4,65.4 44.9,65.4 C45.6,65.4 46.1,65.1 46.5,64.6 L56.5,64.6 C58.3,64.6 59.8,63.1 59.8,61.3 C59.8,59.5 57.9,58 56,58 L56,58 Z M12.5,62.7 L4,62.7 C3.3,62.7 2.7,62.1 2.7,61.4 C2.7,60.7 3.2,60 4,60 L12.5,60 L12.5,62.7 L12.5,62.7 Z M15,63.6 C15,63.9 14.7,64.2 14.4,64.2 C14.1,64.2 13.8,63.9 13.8,63.6 L13.8,59.4 C13.8,59.1 14.1,58.8 14.4,58.8 C14.7,58.8 15,59.1 15,59.4 L15,63.6 L15,63.6 Z M50.2,19.7 L50.2,24.2 C48.8,22.2 46.9,20.6 44.6,19.7 L50.2,19.7 L50.2,19.7 Z M40.2,20.8 C45.8,20.8 50.3,25.3 50.3,30.9 C50.3,36.5 45.8,41 40.2,41 C35.4,41 31.5,36.6 30.4,32.4 L30,31 L30.4,29.6 C31.5,25.2 35.5,20.8 40.2,20.8 L40.2,20.8 Z M31,39 C30.5,39.4 29.9,39.9 29.5,40.3 C29,39.9 28.5,39.5 28,39.1 C28.6,38.4 29.1,37.7 29.4,37 C29.9,37.8 30.5,38.5 31,39 L31,39 Z M36.3,19.6 C33.2,20.9 30.8,23.5 29.5,26.3 C28.1,23.4 25.7,20.8 22.6,19.6 C27,18 31.9,18 36.3,19.6 L36.3,19.6 Z M8.8,19.7 L14.4,19.7 C12.1,20.6 10.2,22.2 8.8,24.2 L8.8,19.7 L8.8,19.7 Z M18.8,20.8 C23.6,20.8 27.5,25.2 28.6,29.4 L29,30.8 L28.6,32.2 C27.5,36.4 23.6,40.8 18.8,40.8 C13.2,40.8 8.7,36.3 8.7,30.7 C8.7,25.3 13.2,20.8 18.8,20.8 L18.8,20.8 Z M17.5,63.6 C17.5,63.9 17.2,64.2 16.9,64.2 C16.6,64.2 16.3,63.9 16.3,63.6 L16.3,59.4 C16.3,59.1 16.6,58.8 16.9,58.8 C17.2,58.8 17.5,59.1 17.5,59.4 L17.5,63.6 L17.5,63.6 Z M20.1,63.6 C20.1,63.9 19.8,64.2 19.5,64.2 C19.2,64.2 18.9,63.9 18.9,63.6 L18.9,59.4 C18.9,59.1 19.2,58.8 19.5,58.8 C19.8,58.8 20.1,59.1 20.1,59.4 L20.1,63.6 L20.1,63.6 Z M37.5,62.7 L21.4,62.7 L21.4,60 L37.5,60 L37.5,62.7 L37.5,62.7 Z M40,63.6 C40,63.9 39.7,64.2 39.4,64.2 C39.1,64.2 38.8,63.9 38.8,63.6 L38.8,59.4 C38.8,59.1 39.1,58.8 39.4,58.8 C39.7,58.8 40,59.1 40,59.4 L40,63.6 L40,63.6 Z M37.3,58 L21.6,58 C14.1,55 8.8,47.6 8.8,39 C8.8,38.6 8.8,38.2 8.9,37.8 C11.1,40.9 14.7,43 18.8,43 C21.6,43 24.1,41.8 26.1,40.1 C27,40.8 28.4,41.9 28.8,42.2 L29.5,43 L30.3,42.3 C30.3,42.3 32.2,40.7 33.1,40 C35.1,41.8 37.6,43 40.5,43 C44.5,43 48.1,41 50.3,38 C50.3,38.3 50.4,38.7 50.4,39 C50.1,47.6 44.8,55 37.3,58 L37.3,58 Z M42.5,63.6 C42.5,63.9 42.2,64.2 41.9,64.2 C41.6,64.2 41.3,63.9 41.3,63.6 L41.3,59.4 C41.3,59.1 41.6,58.8 41.9,58.8 C42.2,58.8 42.5,59.1 42.5,59.4 L42.5,63.6 L42.5,63.6 Z M45.1,63.7 C45.1,64 44.8,64.3 44.5,64.3 C44.2,64.3 43.9,64 43.9,63.7 L43.9,59.5 C43.9,59.2 44.2,58.9 44.5,58.9 C44.8,58.9 45.1,59.2 45.1,59.5 L45.1,63.7 L45.1,63.7 Z M56,62.7 L46.3,62.7 L46.3,60 L56,60 C56.7,60 57.3,60.6 57.3,61.3 C57.3,62 56.8,62.7 56,62.7 L56,62.7 Z M14.4,6.7 L18.5,6.7 L18.5,8.4 L11.8,8.4 L11.8,6.9 L11.8,6.9 L15.7,2.2 L12.1,2.2 L12.1,0.5 L18.4,0.5 L18.4,2 L18.4,2 L14.4,6.7 L14.4,6.7 Z M26.2,11 L26.2,12.3 L21.4,12.3 L21.4,11.2 L21.4,11.2 L24.1,7.9 L21.6,7.9 L21.6,6.6 L26.1,6.6 L26.1,7.7 L26.1,7.7 L23.3,11 L26.2,11 L26.2,11 Z M22.2,30.5 L22.2,30.5 C22.2,32.5 20.6,34.2 18.5,34.2 C16.5,34.2 14.8,32.6 14.8,30.5 L14.8,30.5 C15.4,31.6 16.8,32.5 18.5,32.5 C20.2,32.5 21.7,31.7 22.2,30.5 L22.2,30.5 Z M44.3,30.5 L44.3,30.5 C44.3,32.5 42.7,34.2 40.6,34.2 C38.6,34.2 36.9,32.6 36.9,30.5 L36.9,30.5 C37.5,31.6 38.9,32.5 40.6,32.5 C42.3,32.5 43.7,31.7 44.3,30.5 L44.3,30.5 Z" id="Shape"></path>
            </g>
        </g>
    </g>
</svg>